# xmcd CD database file
#
# Track frame offsets:
#	150
#	21607
#	54710
#	79662
#	102745
#	126020
#	148725
#	176812
#
# Disc length: 2714 seconds
#
# Revision: 1
# Processed by: cddbd v1.5PL3 Copyright (c) Steve Scherf et al.
# Submitted via: CDex 1.50beta9
#
DISCID=770a9808
DTITLE=John Basile - Quiet Passage
DYEAR=1986
DGENRE=Jazz
TTITLE0=Sabrosa
TTITLE1=Under The Influence
TTITLE2=Young One
TTITLE3=Until Tomorrow
TTITLE4=Beautiful love
TTITLE5=I Loves You Porgy
TTITLE6=Estat'e
TTITLE7=Firm Roots
EXTD=YEAR: 1986
EXTT0=
EXTT1=
EXTT2=
EXTT3=
EXTT4=
EXTT5=
EXTT6=
EXTT7=
PLAYORDER=
